<svg xmlns="http://www.w3.org/2000/svg" viewBox="0 0 875 875"><defs><style>.cls-1{fill:#ef6b59;}</style></defs><title>looking_for_the_sun_sketchboard_01</title><g id="Layer_2" data-name="Layer 2"><path class="cls-1" d="M437.5,238.05c-110,0-199.45,89.47-199.45,199.45S327.52,636.95,437.5,636.95,637,547.48,637,437.5,547.48,238.05,437.5,238.05Zm0,378.77c-98.88,0-179.33-80.44-179.33-179.33S338.62,258.18,437.5,258.18,616.83,338.62,616.83,437.5,536.38,616.82,437.5,616.82Zm0-461.89a10.06,10.06,0,0,0,10.06-10.06V10.06a10.06,10.06,0,1,0-20.12,0V144.87A10.06,10.06,0,0,0,437.5,154.93Zm0,565.14a10.06,10.06,0,0,0-10.06,10.06V864.94a10.06,10.06,0,1,0,20.12,0V730.13A10.06,10.06,0,0,0,437.5,720.07ZM864.94,427.44H730.13a10.06,10.06,0,0,0,0,20.12H864.94a10.06,10.06,0,0,0,0-20.12Zm-710,10.06a10.06,10.06,0,0,0-10.06-10.06H10.06a10.06,10.06,0,0,0,0,20.12H144.87A10.06,10.06,0,0,0,154.93,437.5Zm496.6,199.81a10.06,10.06,0,0,0-14.23,14.23l95.32,95.32a10.06,10.06,0,0,0,14.23-14.23ZM223.46,237.69a10.06,10.06,0,0,0,14.23-14.23l-95.32-95.32a10.06,10.06,0,0,0-14.23,14.23Zm0,399.61-95.32,95.32a10.06,10.06,0,1,0,14.23,14.23l95.32-95.32a10.06,10.06,0,0,0-14.23-14.23Zm421-396.67a10,10,0,0,0,7.11-2.95l95.32-95.32a10.06,10.06,0,1,0-14.23-14.23l-95.32,95.32a10.06,10.06,0,0,0,7.11,17.18Z"/></g></svg>