<svg xmlns="http://www.w3.org/2000/svg" viewBox="0 0 44 44"><defs><style>.cls-1{fill:#ef6b59;}</style></defs><title>looking_for_the_sun_sketchboard_01</title><g id="Layer_2" data-name="Layer 2"><path class="cls-1" d="M22,11.46A10.54,10.54,0,1,0,32.54,22,10.55,10.55,0,0,0,22,11.46ZM22,29.7A7.7,7.7,0,1,1,29.7,22,7.71,7.71,0,0,1,22,29.7ZM22,9.33a1.42,1.42,0,0,0,1.42-1.42V1.42a1.42,1.42,0,0,0-2.84,0V7.91A1.42,1.42,0,0,0,22,9.33Zm0,25.34a1.42,1.42,0,0,0-1.42,1.42v6.49a1.42,1.42,0,1,0,2.84,0V36.09A1.42,1.42,0,0,0,22,34.67ZM42.58,20.58H36.09a1.42,1.42,0,0,0,0,2.84h6.49a1.42,1.42,0,0,0,0-2.84ZM9.33,22a1.42,1.42,0,0,0-1.42-1.42H1.42a1.42,1.42,0,0,0,0,2.84H7.91A1.42,1.42,0,0,0,9.33,22ZM33,31a1.42,1.42,0,0,0-2,2l4.59,4.59a1.42,1.42,0,0,0,2-2ZM11,13a1.42,1.42,0,0,0,2-2L8.45,6.44a1.42,1.42,0,0,0-2,2ZM11,31,6.44,35.55a1.42,1.42,0,1,0,2,2L13,33a1.42,1.42,0,0,0-2-2ZM32,13.46A1.41,1.41,0,0,0,33,13l4.59-4.59a1.42,1.42,0,0,0-2-2L31,11a1.42,1.42,0,0,0,1,2.42Z"/></g></svg>