<svg xmlns="http://www.w3.org/2000/svg" viewBox="0 0 426 354"><defs><style>.cls-1{fill:#ef6b59;}</style></defs><title>looking_for_the_sun_sketchboard_01</title><g id="Layer_2" data-name="Layer 2"><path class="cls-1" d="M424.37,217.24c0-19.41-11.58-43.48-32.6-67.79-12-13.84-25.78-31.4-34.91-43-5.07-6.45-7.78-9.88-9.39-11.79-.48-3.37-.24-12.87,2-24,2.87-14.32,5-39.38,3.45-50.23-1.27-8.86-6.78-16.17-14.38-19.07C333.83-.43,324.28-2,313,7.47c-6.44,5.41-89,59.16-155.38,102.36C85.32,156.89,40.74,185.94,35.68,190c-14,11.35-25.68,36.48-27.8,59.75C6.05,269.92,1,340,0,354H20.16c1.2-16.7,6-83.33,7.75-102.39,1.78-19.6,12-39.13,20.45-46,4.78-3.84,66.12-43.76,120.24-79C259.2,67.68,319.09,28.59,326,22.82c3.23-2.72,5.08-2.84,5.38-2.71A4.31,4.31,0,0,1,333,23.25c1.08,7.56-.62,30.31-3.26,43.46-2.4,12-5.31,33.14,2,40.41.93,1,5.2,6.44,9.33,11.69,6.52,8.29,15.38,19.56,24.34,30.47-5.39,7.45-18.41,24.28-34.12,36.43s-48.56,27.64-48.89,27.79a10,10,0,0,0,8.55,18.17c1.43-.67,35.11-16.53,52.65-30.09,15.32-11.85,28-27.1,35.12-36.48,16.28,19.47,25.58,38.35,25.58,52.14,0,15.59,1.36,116.84,1.63,136.76H426C425.74,335.2,424.37,232.57,424.37,217.24ZM211.49,150.57c-10.29,4-13.09,17.41-13.76,20.86s2.46,13.76,14.33,5.32S224.77,145.47,211.49,150.57Z"/></g></svg>